<svg width="800" height="600" viewBox="0 0 800 600" xmlns="http://www.w3.org/2000/svg">
  <defs>
    <linearGradient id="bg" x1="0%" y1="0%" x2="100%" y2="100%">
      <stop offset="0%" style="stop-color:#f8fafc;stop-opacity:1" />
      <stop offset="100%" style="stop-color:#e2e8f0;stop-opacity:1" />
    </linearGradient>
    <linearGradient id="primary" x1="0%" y1="0%" x2="100%" y2="100%">
      <stop offset="0%" style="stop-color:#2563eb;stop-opacity:1" />
      <stop offset="100%" style="stop-color:#1d4ed8;stop-opacity:1" />
    </linearGradient>
    <linearGradient id="success" x1="0%" y1="0%" x2="100%" y2="100%">
      <stop offset="0%" style="stop-color:#10b981;stop-opacity:1" />
      <stop offset="100%" style="stop-color:#059669;stop-opacity:1" />
    </linearGradient>
  </defs>
  
  <!-- Background -->
  <rect width="800" height="600" fill="url(#bg)" rx="12"/>
  
  <!-- Header -->
  <rect x="20" y="20" width="760" height="60" fill="white" rx="8"/>
  <rect x="40" y="40" width="120" height="20" fill="#2563eb" rx="4"/>
  <circle cx="720" cy="50" r="8" fill="#ef4444"/>
  <circle cx="740" cy="50" r="8" fill="#f59e0b"/>
  <circle cx="760" cy="50" r="8" fill="#10b981"/>
  
  <!-- Sidebar -->
  <rect x="20" y="100" width="200" height="480" fill="white" rx="8"/>
  <rect x="40" y="120" width="160" height="12" fill="#6b7280" rx="2"/>
  <rect x="40" y="140" width="140" height="12" fill="#6b7280" rx="2"/>
  <rect x="40" y="160" width="150" height="12" fill="#6b7280" rx="2"/>
  <rect x="40" y="180" width="130" height="12" fill="#6b7280" rx="2"/>
  <rect x="40" y="200" width="145" height="12" fill="#6b7280" rx="2"/>
  
  <!-- Main Content -->
  <rect x="240" y="100" width="540" height="200" fill="white" rx="8"/>
  
  <!-- Chart Area -->
  <rect x="260" y="120" width="500" height="160" fill="url(#primary)" opacity="0.1" rx="4"/>
  
  <!-- Chart Lines -->
  <path d="M 280 240 L 320 220 L 360 200 L 400 180 L 440 190 L 480 170 L 520 150 L 560 160 L 600 140 L 640 130 L 680 120 L 720 110" 
        stroke="url(#primary)" stroke-width="3" fill="none"/>
  
  <!-- Stats Cards -->
  <rect x="240" y="320" width="170" height="100" fill="white" rx="8"/>
  <rect x="260" y="340" width="130" height="8" fill="#6b7280" rx="2"/>
  <rect x="260" y="360" width="100" height="20" fill="url(#primary)" rx="2"/>
  <rect x="260" y="390" width="80" height="8" fill="#6b7280" rx="2"/>
  
  <rect x="430" y="320" width="170" height="100" fill="white" rx="8"/>
  <rect x="450" y="340" width="130" height="8" fill="#6b7280" rx="2"/>
  <rect x="450" y="360" width="100" height="20" fill="url(#success)" rx="2"/>
  <rect x="450" y="390" width="80" height="8" fill="#6b7280" rx="2"/>
  
  <rect x="620" y="320" width="160" height="100" fill="white" rx="8"/>
  <rect x="640" y="340" width="120" height="8" fill="#6b7280" rx="2"/>
  <rect x="640" y="360" width="90" height="20" fill="#f59e0b" rx="2"/>
  <rect x="640" y="390" width="70" height="8" fill="#6b7280" rx="2"/>
  
  <!-- Recent Transactions -->
  <rect x="240" y="440" width="540" height="140" fill="white" rx="8"/>
  <rect x="260" y="460" width="200" height="12" fill="#1f2937" rx="2"/>
  
  <!-- Transaction Items -->
  <rect x="260" y="480" width="500" height="8" fill="#6b7280" rx="2"/>
  <rect x="260" y="495" width="400" height="8" fill="#6b7280" rx="2"/>
  <rect x="680" y="480" width="80" height="8" fill="url(#success)" rx="2"/>
  
  <rect x="260" y="510" width="500" height="8" fill="#6b7280" rx="2"/>
  <rect x="260" y="525" width="350" height="8" fill="#6b7280" rx="2"/>
  <rect x="680" y="510" width="80" height="8" fill="#ef4444" rx="2"/>
  
  <rect x="260" y="540" width="500" height="8" fill="#6b7280" rx="2"/>
  <rect x="260" y="555" width="380" height="8" fill="#6b7280" rx="2"/>
  <rect x="680" y="540" width="80" height="8" fill="url(#success)" rx="2"/>
</svg> 